:FULLY-SPECIFIED
:DEGREES
1185
root 1.76143 15.7733 -2.22073 2549.83 -97.5817 -2548.56
lowerback 4.36456 2.37094 -6.61703
upperback -1.30293 2.75229 -0.296254
thorax -4.10644 1.52229 3.17701
lowerneck -18.0325 1.26533 1.84523
upperneck 26.7684 1.70102 -2.89891
head 11.8024 0.421688 -1.16447
rclavicle -2.60408e-014 1.18774e-014
rhumerus -35.0106 -21.884 -78.136
rradius 12.9091
rwrist 25.4781
rhand -30.2522 -16.9954
rfingers 7.12502
rthumb -3.56103 -46.9454
lclavicle -2.60408e-014 1.18774e-014
lhumerus -30.2116 -5.33961 92.6771
lradius 30.726
lwrist 11.4436
lhand -31.8649 16.5464
lfingers 7.12502
lthumb -5.11827 46.4646
rfemur -17.711 -3.6193 15.0147
rtibia 68.616
rfoot 0.824035 -17.9021
rtoes -6.76882
lfemur -10.508 -6.40253 -28.641
ltibia 19.9784
lfoot -8.04681 5.64352
ltoes -2.92427
1186
root 1.7609 15.7648 -2.20606 2550.46 -97.4812 -2549.42
lowerback 4.53314 2.28722 -6.63676
upperback -1.19607 2.63311 -0.243568
thorax -4.08085 1.46132 3.24988
lowerneck -17.9792 1.28254 1.79731
upperneck 26.7129 1.75579 -2.95128
head 11.7719 0.435156 -1.16684
rclavicle -9.39258e-015 -7.7526e-015
rhumerus -36.4174 -23.9557 -76.0176
rradius 12.3178
rwrist 28.1039
rhand -30.4102 -16.9154
rfingers 7.12502
rthumb -3.71355 -46.8628
lclavicle -9.39258e-015 -7.7526e-015
lhumerus -29.3966 -5.8241 92.5558
lradius 31.5227
lwrist 11.8604
lhand -31.978 16.5809
lfingers 7.12502
lthumb -5.22749 46.4964
rfemur -18.9548 -3.59988 15.141
rtibia 69.1217
rfoot -0.796942 -18.0631
rtoes -7.77908
lfemur -9.62678 -6.47682 -28.9472
ltibia 19.975
lfoot -8.58775 5.72793
ltoes -3.39527
1187
root 1.76353 15.7515 -2.19712 2551.39 -97.314 -2550.58
lowerback 4.69598 2.17965 -6.71978
upperback -1.07585 2.47915 -0.184081
thorax -4.03724 1.3837 3.36928
lowerneck -17.9617 1.30101 1.77579
upperneck 26.6616 1.80221 -2.99605
head 11.7502 0.448721 -1.17211
rclavicle -5.76972e-014 3.97569e-015
rhumerus -37.7861 -25.698 -74.0236
rradius 11.8101
rwrist 30.3792
rhand -30.6015 -16.9125
rfingers 7.12502
rthumb -3.89829 -46.8566
lclavicle -5.76972e-014 3.97569e-015
lhumerus -28.5703 -6.15892 92.3586
lradius 32.3744
lwrist 12.1309
lhand -32.0122 16.6671
lfingers 7.12502
lthumb -5.26051 46.5818
rfemur -20.0999 -3.64396 15.2968
rtibia 69.3543
rfoot -2.62295 -17.9991
rtoes -8.14602
lfemur -8.78779 -6.48227 -29.2199
ltibia 20.0262
lfoot -9.10701 5.68504
ltoes -3.60706
1188
root 1.77033 15.7389 -2.18851 2553.05 -97.1854 -2552.39
lowerback 4.8886 2.06708 -6.88654
upperback -1.0369 2.3058 -0.152471
thorax -4.09508 1.30268 3.50602
lowerneck -17.9214 1.33127 1.77119
upperneck 26.6681 1.85863 -3.04165
head 11.7468 0.466919 -1.17998
rclavicle -2.75317e-014 -5.66536e-015
rhumerus -39.2893 -27.654 -71.7483
rradius 11.3887
rwrist 32.5086
rhand -30.5241 -17.0077
rfingers 7.12502
rthumb -3.82356 -46.9532
lclavicle -2.75317e-014 -5.66536e-015
lhumerus -27.8087 -6.39911 92.1274
lradius 33.1432
lwrist 12.2164
lhand -32.3358 16.2327
lfingers 7.12502
lthumb -5.57299 46.1394
rfemur -21.3042 -3.56921 15.3974
rtibia 69.3035
rfoot -4.38965 -17.9057
rtoes -8.90595
lfemur -8.13499 -6.48177 -29.5419
ltibia 20.1629
lfoot -9.686 5.50865
ltoes -3.74104
1189
root 1.77839 15.7205 -2.18353 2555.34 -97.0364 -2554.83
lowerback 5.07438 1.95142 -7.09018
upperback -0.995965 2.12383 -0.158647
thorax -4.14484 1.21726 3.62599
lowerneck -17.9261 1.33607 1.72976
upperneck 26.7001 1.86555 -3.00204
head 11.7595 0.46999 -1.1576
rclavicle -1.22253e-014 3.67752e-015
rhumerus -40.6518 -28.7654 -70.0287
rradius 11.1107
rwrist 33.7234
rhand -30.4654 -17.2403
rfingers 7.12502
rthumb -3.7669 -47.1868
lclavicle -1.22253e-014 3.67752e-015
lhumerus -27.0446 -6.82856 91.9016
lradius 34.1065
lwrist 13.0324
lhand -32.4182 16.4505
lfingers 7.12502
lthumb -5.65247 46.3551
rfemur -22.428 -3.55658 15.4739
rtibia 69.0148
rfoot -6.01628 -18.0111
rtoes -9.28889
lfemur -7.52537 -6.42881 -29.8884
ltibia 20.3899
lfoot -10.1683 5.27028
ltoes -3.90917
1190
root 1.78826 15.6996 -2.17824 2558.08 -96.8899 -2557.72
lowerback 5.24449 1.82673 -7.31755
upperback -0.925838 1.93007 -0.160792
thorax -4.15348 1.12454 3.76641
lowerneck -17.9486 1.34471 1.65074
upperneck 26.7091 1.88693 -2.94966
head 11.7667 0.477974 -1.12143
rclavicle 5.06901e-015 -2.98177e-015
rhumerus -42.47 -30.917 -67.1958
rradius 10.6282
rwrist 36.7401
rhand -30.7019 -16.549
rfingers 7.12502
rthumb -3.99527 -46.4913
lclavicle 5.06901e-015 -2.98177e-015
lhumerus -26.2224 -7.11502 91.6466
lradius 34.8453
lwrist 13.1106
lhand -32.365 16.7032
lfingers 7.12502
lthumb -5.60112 46.6091
rfemur -23.4606 -3.50208 15.531
rtibia 68.4621
rfoot -7.72784 -18.4162
rtoes -9.51311
lfemur -6.9559 -6.48096 -30.2663
ltibia 20.6811
lfoot -10.7449 5.10144
ltoes -4.12039
1191
root 1.79917 15.6765 -2.17456 2560.33 -96.7842 -2560.02
lowerback 5.31701 1.72752 -7.52758
upperback -0.893852 1.77902 -0.142122
thorax -4.15076 1.05368 3.9171
lowerneck -17.956 1.33987 1.55533
upperneck 26.7387 1.88901 -2.88235
head 11.778 0.47705 -1.08018
rclavicle -1.33186e-014 -5.96354e-015
rhumerus -43.4118 -31.0764 -66.2274
rradius 10.6128
rwrist 36.6624
rhand -30.3447 -17.169
rfingers 7.12502
rthumb -3.65038 -47.1175
lclavicle -1.33186e-014 -5.96354e-015
lhumerus -25.44 -7.33179 91.408
lradius 35.6205
lwrist 13.2996
lhand -32.4119 16.6497
lfingers 7.12502
lthumb -5.64638 46.5545
rfemur -24.5195 -3.41042 15.663
rtibia 67.6596
rfoot -9.37712 -19.04
rtoes -9.68791
lfemur -6.54268 -6.45776 -30.5714
ltibia 21.0726
lfoot -11.2929 4.92239
ltoes -4.33307
1192
root 1.81097 15.6493 -2.17143 2562.58 -96.6787 -2562.28
lowerback 5.37681 1.62726 -7.7187
upperback -0.877782 1.62799 -0.12674
thorax -4.15562 0.98304 4.05403
lowerneck -17.9752 1.33407 1.46245
upperneck 26.7596 1.88934 -2.81464
head 11.7882 0.475909 -1.0393
rclavicle -2.10712e-014 2.36554e-014
rhumerus -44.5475 -31.5816 -64.8188
rradius 10.4372
rwrist 37.5199
rhand -30.1832 -17.2264
rfingers 7.12502
rthumb -3.49436 -47.1775
lclavicle -2.10712e-014 2.36554e-014
lhumerus -24.7138 -7.63516 91.1778
lradius 36.4161
lwrist 13.6009
lhand -32.5954 16.2587
lfingers 7.12502
lthumb -5.82358 46.1587
rfemur -25.5007 -3.21373 15.8345
rtibia 66.5943
rfoot -10.767 -19.967
rtoes -9.72761
lfemur -6.13662 -6.47349 -30.8498
ltibia 21.4625
lfoot -11.8957 4.77298
ltoes -4.71647
1193
root 1.82153 15.6324 -2.1691 2564.87 -96.5164 -2564.59
lowerback 5.4813 1.52519 -7.82301
upperback -0.882501 1.47448 -0.13098
thorax -4.20297 0.910984 4.12096
lowerneck -17.9833 1.32917 1.42929
upperneck 26.7902 1.87403 -2.75377
head 11.8002 0.472889 -1.01367
rclavicle -1.74931e-014 2.18663e-015
rhumerus -45.6352 -31.9762 -63.5542
rradius 10.3202
rwrist 38.0818
rhand -29.9091 -17.2224
rfingers 7.12502
rthumb -3.22968 -47.1777
lclavicle -1.74931e-014 2.18663e-015
lhumerus -24.0333 -7.85643 90.8761
lradius 37.1986
lwrist 13.5138
lhand -32.4756 16.2977
lfingers 7.12502
lthumb -5.70797 46.2008
rfemur -26.3602 -3.1012 16.0433
rtibia 65.2188
rfoot -12.1024 -21.0211
rtoes -9.44655
lfemur -5.78064 -6.54751 -31.0575
ltibia 21.8395
lfoot -12.3404 4.53385
ltoes -4.78212
1194
root 1.83351 15.6047 -2.16972 2566.62 -96.3926 -2566.34
lowerback 5.5382 1.44937 -7.92628
upperback -0.884591 1.36119 -0.119624
thorax -4.22581 0.858268 4.20093
lowerneck -17.9961 1.2954 1.31807
upperneck 26.8063 1.83211 -2.65859
head 11.8057 0.45472 -0.965823
rclavicle -8.74653e-015 -1.78906e-015
rhumerus -46.5167 -32.0702 -62.6192
rradius 10.2309
rwrist 38.4356
rhand -29.6136 -17.4567
rfingers 7.12502
rthumb -2.9443 -47.4161
lclavicle -8.74653e-015 -1.78906e-015
lhumerus -23.3523 -8.16886 90.6151
lradius 37.9005
lwrist 13.4306
lhand -32.3934 16.1963
lfingers 7.12502
lthumb -5.62858 46.1016
rfemur -27.117 -2.82713 16.2785
rtibia 63.6473
rfoot -13.6566 -21.967
rtoes -8.79456
lfemur -5.30723 -6.59596 -31.2296
ltibia 22.0975
lfoot -12.9158 4.5307
ltoes -5.52579
1195
root 1.84274 15.592 -2.16893 2567.57 -96.308 -2567.25
lowerback 5.5499 1.40412 -7.97037
upperback -0.883278 1.29742 -0.10565
thorax -4.22412 0.827843 4.24646
lowerneck -17.9871 1.31665 1.38718
upperneck 26.7994 1.84893 -2.68601
head 11.8026 0.466019 -0.985172
rclavicle 7.55382e-015 1.25234e-014
rhumerus -47.6322 -32.8404 -61.0131
rradius 10.0036
rwrist 39.7628
rhand -29.3306 -17.2315
rfingers 7.12502
rthumb -2.67098 -47.1945
lclavicle 7.55382e-015 1.25234e-014
lhumerus -22.6901 -8.59017 90.3695
lradius 38.6523
lwrist 13.5561
lhand -32.3715 16.2839
lfingers 7.12502
lthumb -5.60742 46.1897
rfemur -27.8173 -2.3706 16.5163
rtibia 61.7578
rfoot -15.102 -22.8875
rtoes -7.64976
lfemur -4.85818 -6.57372 -31.3419
ltibia 22.2813
lfoot -13.4081 4.47054
ltoes -6.04593
1196
root 1.85446 15.59 -2.17167 2569.22 -96.107 -2568.78
lowerback 5.53443 1.33408 -7.98086
upperback -0.909336 1.20477 -0.0863716
thorax -4.23099 0.783623 4.28164
lowerneck -17.9706 1.30701 1.40143
upperneck 26.7456 1.82142 -2.65013
head 11.7774 0.461441 -0.977737
rclavicle -1.49089e-014 1.66979e-014
rhumerus -48.0077 -32.4583 -60.8622
rradius 9.93463
rwrist 39.2571
rhand -29.108 -17.3761
rfingers 7.12502
rthumb -2.45598 -47.3417
lclavicle -1.49089e-014 1.66979e-014
lhumerus -22.0124 -8.94304 90.1367
lradius 39.3187
lwrist 13.6217
lhand -32.2332 16.2563
lfingers 7.12502
lthumb -5.47391 46.1656
rfemur -28.4711 -1.96909 16.7759
rtibia 59.6711
rfoot -16.3302 -23.6878
rtoes -7.96743
lfemur -4.33115 -6.66513 -31.3732
ltibia 22.1382
lfoot -13.7031 4.33237
ltoes -6.16013
1197
root 1.86375 15.5824 -2.17524 2570.8 -95.9653 -2570.26
lowerback 5.47292 1.27636 -8.05593
upperback -0.914189 1.12992 -0.0518719
thorax -4.19377 0.747705 4.36819
lowerneck -17.9913 1.29095 1.3849
upperneck 26.7065 1.80387 -2.64569
head 11.7658 0.453613 -0.975356
rclavicle -1.11319e-014 2.38542e-015
rhumerus -48.2275 -32.1242 -60.7751
rradius 9.77833
rwrist 39.0216
rhand -28.9965 -17.6235
rfingers 7.12502
rthumb -2.34831 -47.5903
lclavicle -1.11319e-014 2.38542e-015
lhumerus -21.3637 -9.28994 89.9446
lradius 39.9232
lwrist 13.7148
lhand -32.3203 16.2833
lfingers 7.12502
lthumb -5.55799 46.1904
rfemur -28.8667 -1.49605 16.9653
rtibia 57.2639
rfoot -17.0022 -24.4681
rtoes -8.41723
lfemur -3.7462 -6.71455 -31.4326
ltibia 21.9462
lfoot -13.9349 4.19313
ltoes -6.53764
1198
root 1.87362 15.5987 -2.17809 2572.71 -95.8406 -2571.98
lowerback 5.39511 1.21235 -8.1413
upperback -0.958539 1.04539 -0.0256232
thorax -4.18731 0.70944 4.45251
lowerneck -18.0046 1.27431 1.3451
upperneck 26.6574 1.78795 -2.62432
head 11.7484 0.446567 -0.962354
rclavicle 1.8487e-014 -1.92821e-014
rhumerus -48.3136 -31.8487 -60.7533
rradius 9.51139
rwrist 38.9298
rhand -28.7438 -17.8556
rfingers 7.12502
rthumb -2.10428 -47.8249
lclavicle 1.8487e-014 -1.92821e-014
lhumerus -20.7614 -9.68143 89.7734
lradius 40.492
lwrist 14.133
lhand -32.4177 16.2489
lfingers 7.12502
lthumb -5.65204 46.1535
rfemur -29.3451 -1.0022 17.0753
rtibia 54.7855
rfoot -17.5026 -24.8593
rtoes -7.80177
lfemur -3.1031 -6.85501 -31.5104
ltibia 21.5035
lfoot -14.0089 4.16533
ltoes -7.051
